# xmcd
#
# Track frame offsets:
# 150
# 47127
# 89812
# 101892
# 115787
# 145257
# 189780
# 211797
# 236045
# 256157
# 284400
# 297725
#
# Disc length: 4222 seconds
#
#
# Revision: 3
# Processed by: cddbd v1.5.1PL2 Copyright (c) Steve Scherf et al.
# Submitted via: FreeRIP 2.942 
#
DISCID=ba107c0c
DTITLE=Mojo Blues Band - Super Blues News  Disc 2
DYEAR=1900
DGENRE=Blues
TTITLE0=MBB and Big Jay McNeely - Big City
TTITLE1=Mojo Blues Band - Sound Of The Blues
TTITLE2=Mojo Blues Band - Harp Enough
TTITLE3=Mojo Blues Band - Louisiana Stomp
TTITLE4=Mojo Blues Band - Midnight At Jazzland
TTITLE5=MBB and Katie Webster - People's Problems
TTITLE6=MBB and Jan Harrington - Double Dynamite
TTITLE7=MBB and Jan Harrington - Just A Closer Walk With Thee
TTITLE8=MBB and Jan Harrington - Aint Doin' Too Bad
TTITLE9=MBB and Loisiana Red - I Got My Brand On You
TTITLE10=MBB and Lowell Fulson - Guitar Shuffle
TTITLE11=MBB and Lowell Fulson - Reconsider Baby
EXTD=
EXTT0=
EXTT1=
EXTT2=
EXTT3=
EXTT4=
EXTT5=
EXTT6=
EXTT7=
EXTT8=
EXTT9=
EXTT10=
EXTT11=
PLAYORDER=
